<svg xmlns="http://www.w3.org/2000/svg" width="103" height="103" viewBox="0 0 103 103">
  <path id="Subtraction_1" data-name="Subtraction 1" d="M52,103.5A51.513,51.513,0,0,1,31.954,4.547,51.513,51.513,0,0,1,72.046,99.453,51.178,51.178,0,0,1,52,103.5ZM32.773,71.226H71.225v4.806a4.812,4.812,0,0,0,4.807,4.807h4.806a4.812,4.812,0,0,0,4.806-4.807V67.91a9.578,9.578,0,0,0,2.4-6.3V54.4a9.6,9.6,0,0,0-3.316-7.21h3.015A1.8,1.8,0,0,0,89.5,45.828l.9-3.6a1.8,1.8,0,0,0-1.75-2.239H79.654l-2.5-6.249A16.738,16.738,0,0,0,61.537,23.161H42.462A16.741,16.741,0,0,0,26.842,33.736l-2.5,6.249H15.352A1.8,1.8,0,0,0,13.6,42.223l.9,3.6a1.8,1.8,0,0,0,1.748,1.365h3.015a9.717,9.717,0,0,0-2.415,3.183,9.357,9.357,0,0,0-.9,4.027v7.21a9.589,9.589,0,0,0,2.4,6.3v8.122a4.812,4.812,0,0,0,4.806,4.807h4.807a4.812,4.812,0,0,0,4.806-4.807V71.227Zm40.913-9.613c-2.527,0-4.865-.294-4.865-2.426,0-1.33.967-3.12,2.523-4.671S74.7,52,76.032,52a4.791,4.791,0,1,1,0,9.582c-.35,0-.715.007-1.1.014C74.524,61.6,74.105,61.613,73.687,61.613Zm-43.374,0h0c-.418,0-.836-.008-1.241-.016-.389-.007-.754-.014-1.1-.014a4.791,4.791,0,1,1,0-9.582c1.334,0,3.13.964,4.686,2.515s2.524,3.341,2.524,4.671C35.177,61.319,32.839,61.613,30.313,61.613ZM71.225,44.79H32.773l2.993-7.484a7.211,7.211,0,0,1,6.7-4.531H61.537a7.21,7.21,0,0,1,6.694,4.531l2.993,7.483Z" transform="translate(-0.5 -0.5)" fill="#31687c"/>
</svg>
