<svg xmlns="http://www.w3.org/2000/svg" width="103" height="88.285" viewBox="0 0 103 88.285">
  <path id="Icon_ionic-ios-speedometer" data-name="Icon ionic-ios-speedometer" d="M53.75,4.5A51.483,51.483,0,0,0,15.194,90.118c.253.276.483.552.736.8a5.79,5.79,0,0,0,8.53-.023,39.8,39.8,0,0,1,58.581,0,5.79,5.79,0,0,0,8.53.023l.736-.8A51.483,51.483,0,0,0,53.75,4.5ZM50.531,15.053a3.219,3.219,0,0,1,6.437,0V23.33a3.219,3.219,0,1,1-6.437,0ZM21.1,59.2H12.826a3.219,3.219,0,1,1,0-6.437H21.1a3.219,3.219,0,1,1,0,6.437ZM32.943,35.17h0a3.247,3.247,0,0,1-4.552,0l-5.863-5.84a3.247,3.247,0,0,1,0-4.552h0a3.247,3.247,0,0,1,4.552,0l5.863,5.863A3.219,3.219,0,0,1,32.943,35.17ZM69.866,43.1,58.946,60.46a7.127,7.127,0,0,1-1.609,1.609A6.922,6.922,0,1,1,49.29,50.8L66.648,39.883a2.352,2.352,0,0,1,2.69,0A2.312,2.312,0,0,1,69.866,43.1Zm9.242-7.932a3.247,3.247,0,0,1-4.552,0h0a3.247,3.247,0,0,1,0-4.552l5.863-5.863a3.247,3.247,0,0,1,4.552,0h0a3.247,3.247,0,0,1,0,4.552ZM94.674,59.2H86.4a3.219,3.219,0,0,1,0-6.437h8.277a3.219,3.219,0,0,1,0,6.437Z" transform="translate(-2.25 -4.5)" fill="#31687c"/>
</svg>
