<svg xmlns="http://www.w3.org/2000/svg" width="103" height="103" viewBox="0 0 103 103">
  <path id="Subtraction_2" data-name="Subtraction 2" d="M52,103.5A51.513,51.513,0,0,1,31.954,4.547,51.513,51.513,0,0,1,72.046,99.453,51.178,51.178,0,0,1,52,103.5ZM26.794,14.288l-9.176,9.176L31.383,41.819h8.9L55.573,57.1a10.675,10.675,0,0,0,1.993,12.246L74.358,86.143a5.33,5.33,0,0,0,7.556,0l7.557-7.557a5.362,5.362,0,0,0,0-7.556L72.68,54.238a10.528,10.528,0,0,0-7.5-3.1,10.807,10.807,0,0,0-4.751,1.106L45.148,36.958v-8.9ZM42.151,50.179h0L20.3,72.047A9.176,9.176,0,1,0,33.276,85.024L51,67.3a15.391,15.391,0,0,1-.717-8.99l-8.131-8.131Zm23.029-3.628A15.084,15.084,0,0,1,75.92,51L78.7,53.779a20.306,20.306,0,0,0,6.281-4.23,20.622,20.622,0,0,0,5.434-19.6,1.716,1.716,0,0,0-2.882-.788L76.867,39.826l-9.736-1.62L65.51,28.47,76.179,17.8a1.7,1.7,0,0,0,.439-1.669A1.726,1.726,0,0,0,75.361,14.9a20.829,20.829,0,0,0-4.986-.606,20.58,20.58,0,0,0-14.6,6.04,20.257,20.257,0,0,0-5.908,14.855L61.639,46.967A15.516,15.516,0,0,1,65.181,46.552ZM26.794,81.969a3.445,3.445,0,1,1,3.442-3.442A3.445,3.445,0,0,1,26.794,81.969Z" transform="translate(-0.5 -0.5)" fill="#31687c"/>
</svg>
